<svg height="512pt" viewBox="0 0 512 511" width="512pt" xmlns="http://www.w3.org/2000/svg"><path d="m191.132812 501.695312v-83.847656c0-11.65625 3.679688-23.011718 10.519532-32.453125l27.46875-37.902343c6.839844-9.441407 10.519531-20.796876 10.519531-32.453126v-141.667968h-157.171875v338.625h98.359375c5.691406 0 10.304687-4.609375 10.304687-10.300782zm0 0" fill="#fecaa8"/><path d="m213.445312 122.0625c-14.464843 0-26.195312 11.730469-26.195312 26.195312v-27.859374c0-14.464844-11.726562-26.195313-26.195312-26.195313s-26.195313 11.730469-26.195313 26.195313v-32.042969c0-14.46875-11.726563-26.195313-26.195313-26.195313s-26.195312 11.726563-26.195312 26.195313v31.167969c0-14.46875-11.730469-26.195313-26.199219-26.195313-14.464843 0-26.195312 11.726563-26.195312 26.195313v194.042968h52.394531v-40.871094h38.5625c42.929688 0 84.644531 14.242188 118.609375 40.5v-164.9375c.003906-14.464843-11.726563-26.195312-26.195313-26.195312zm0 0" fill="#fecaa8"/><path d="m55.300781 263.117188v-50.9375c0-15.269532-12.378906-27.652344-27.648437-27.652344-15.273438 0-27.652344 12.382812-27.652344 27.652344v102.859374c0 11.65625 3.683594 23.011719 10.519531 32.453126l27.46875 37.902343c6.839844 9.441407 10.523438 20.796875 10.523438 32.453125v83.847656c0 5.691407 4.609375 10.300782 10.300781 10.300782h51.792969v-193.578125c0-30.542969-24.761719-55.300781-55.304688-55.300781zm0 0" fill="#ffdfc7"/><path d="m82.46875 224.113281c-4.269531 0-7.726562-3.460937-7.726562-7.726562v-96.863281c0-4.265626 3.457031-7.726563 7.726562-7.726563 4.265625 0 7.726562 3.460937 7.726562 7.726563v96.863281c0 4.265625-3.460937 7.726562-7.726562 7.726562zm0 0" fill="#ffb38c"/><path d="m134.859375 224.113281c-4.265625 0-7.726563-3.460937-7.726563-7.726562v-96.863281c0-4.265626 3.460938-7.726563 7.726563-7.726563 4.269531 0 7.726563 3.460937 7.726563 7.726563v96.863281c0 4.265625-3.457032 7.726562-7.726563 7.726562zm0 0" fill="#ffb38c"/><path d="m187.25 251.277344c-4.265625 0-7.726562-3.457032-7.726562-7.722656v-96.863282c0-4.269531 3.460937-7.726562 7.726562-7.726562 4.269531 0 7.726562 3.457031 7.726562 7.726562v96.863282c0 4.265624-3.457031 7.722656-7.726562 7.722656zm0 0"/><path d="m320.867188 501.695312v-83.847656c0-11.65625-3.679688-23.011718-10.519532-32.453125l-27.46875-37.902343c-6.839844-9.441407-10.519531-20.796876-10.519531-32.453126v-141.667968h157.171875v338.625h-98.359375c-5.691406 0-10.304687-4.609375-10.304687-10.300782zm0 0" fill="#fecaa8"/><path d="m298.554688 122.0625c14.464843 0 26.195312 11.730469 26.195312 26.195312v-27.859374c0-14.464844 11.726562-26.195313 26.195312-26.195313 14.464844 0 26.195313 11.730469 26.195313 26.195313v-32.042969c0-14.46875 11.726563-26.195313 26.195313-26.195313s26.195312 11.726563 26.195312 26.195313v31.167969c0-14.46875 11.730469-26.195313 26.199219-26.195313 14.464843 0 26.195312 11.726563 26.195312 26.195313v194.042968h-52.394531v-40.871094h-38.5625c-42.929688 0-84.644531 14.242188-118.609375 40.5v-164.9375c-.003906-14.464843 11.726563-26.195312 26.195313-26.195312zm0 0" fill="#fecaa8"/><path d="m456.699219 263.117188v-50.9375c0-15.269532 12.378906-27.652344 27.648437-27.652344 15.273438 0 27.652344 12.382812 27.652344 27.652344v102.859374c0 11.65625-3.683594 23.011719-10.519531 32.453126l-27.46875 37.902343c-6.839844 9.441407-10.523438 20.796875-10.523438 32.453125v83.847656c0 5.691407-4.609375 10.300782-10.300781 10.300782h-51.792969v-193.578125c0-30.542969 24.761719-55.300781 55.304688-55.300781zm0 0" fill="#ffdfc7"/><path d="m429.53125 224.113281c-4.265625 0-7.726562-3.460937-7.726562-7.726562v-96.863281c0-4.265626 3.460937-7.726563 7.726562-7.726563 4.269531 0 7.726562 3.460937 7.726562 7.726563v96.863281c0 4.265625-3.457031 7.726562-7.726562 7.726562zm0 0" fill="#ffb38c"/><path d="m377.140625 224.113281c-4.269531 0-7.726563-3.460937-7.726563-7.726562v-96.863281c0-4.265626 3.457032-7.726563 7.726563-7.726563 4.265625 0 7.726563 3.460937 7.726563 7.726563v96.863281c0 4.265625-3.460938 7.726562-7.726563 7.726562zm0 0" fill="#ffb38c"/><path d="m324.75 251.277344c-4.269531 0-7.726562-3.457032-7.726562-7.722656v-96.863282c0-4.269531 3.457031-7.726562 7.726562-7.726562 4.265625 0 7.726562 3.457031 7.726562 7.726562v96.863282c0 4.265624-3.460937 7.722656-7.726562 7.722656zm0 0"/><path d="m384.566406 232.460938c0 71.003906-57.5625 128.566406-128.566406 128.566406s-128.566406-57.5625-128.566406-128.566406c0-55.726563 79.1875-175.15625 113.269531-223.980469 7.425781-10.636719 23.167969-10.636719 30.59375 0 34.082031 48.820312 113.269531 168.253906 113.269531 223.980469zm0 0" fill="#f55"/><path d="m384.558594 232.457031c0 71.015625-57.5625 128.578125-128.558594 128.578125-11.730469 0-23.117188-1.578125-33.914062-4.53125 54.554687-14.882812 94.644531-64.78125 94.644531-124.046875 0-47.089843-56.550781-139.683593-94.644531-196.710937 6.96875-10.449219 13.328124-19.707032 18.605468-27.257813 7.445313-10.652343 23.171875-10.652343 30.613282 0 34.078124 48.816407 113.253906 168.242188 113.253906 223.96875zm0 0" fill="#f72b2b"/></svg>